<svg xmlns="http://www.w3.org/2000/svg" height="40" viewBox="0 -960 960 960" width="40"><path d="M20.002-248.462v-43.897q0-37.736 40.41-62.047t105.352-24.311q10.521 0 21.494.692 10.973.693 22.101 2.461-8.461 17.026-12.756 34.583-4.294 17.558-4.294 35.981v56.538H20.001Zm239.999 0v-54.999q0-28.091 15.77-51.353 15.769-23.262 45.461-40.57 29.692-17.307 70.153-25.961 40.461-8.654 88.461-8.654 48.923 0 89.384 8.654t70.154 25.961q29.692 17.308 45.153 40.57 15.462 23.262 15.462 51.353v54.999H260.001Zm507.69 0v-56.423q0-19.502-3.858-37-3.859-17.499-12.244-33.629 11.769-1.818 22.409-2.511 10.64-.692 20.873-.692 65.025 0 105.076 23.909 40.052 23.91 40.052 62.449v43.897H767.691ZM165.123-412.691q-26.096 0-44.647-18.665t-18.551-44.924q0-26.308 18.664-44.756 18.665-18.448 44.925-18.448 26.307 0 44.948 18.448 18.64 18.448 18.64 45.159 0 25.699-18.429 44.442-18.43 18.744-45.55 18.744Zm629.46 0q-25.814 0-44.557-18.785-18.744-18.785-18.744-44.689 0-26.423 18.785-44.871 18.785-18.448 44.879-18.448 26.617 0 45.065 18.448 18.449 18.448 18.449 45.044 0 26.054-18.4 44.678-18.401 18.623-45.477 18.623Zm-314.447-47.308q-43.212 0-73.597-30.288-30.384-30.288-30.384-73.557 0-44.134 30.288-73.989 30.288-29.855 73.557-29.855 44.134 0 73.99 29.816 29.855 29.816 29.855 73.893 0 43.212-29.816 73.596-29.817 30.384-73.893 30.384Z"/></svg>