<svg xmlns="http://www.w3.org/2000/svg" height="40" viewBox="0 -960 960 960" width="40"><path d="m626.359-296.616 36.615-36.614-156.359-157.035v-196.094H456.36v216.615l169.999 173.128ZM480.067-100.001q-78.426 0-147.666-29.92t-120.887-81.544q-51.647-51.624-81.58-120.833-29.933-69.21-29.933-147.635 0-78.426 29.92-147.666t81.544-120.887q51.624-51.647 120.833-81.58 69.21-29.933 147.635-29.933 78.426 0 147.666 29.92t120.887 81.544q51.647 51.624 81.58 120.833 29.933 69.21 29.933 147.635 0 78.426-29.92 147.666t-81.544 120.887q-51.624 51.647-120.833 81.58-69.21 29.933-147.635 29.933Z"/></svg>