<svg xmlns="http://www.w3.org/2000/svg" height="40" viewBox="0 -960 960 960" width="40"><path d="M124.104-566.436q0-83.589 35.346-154.306 35.346-70.718 95.396-119.692l31.717 38.845q-51.499 42.379-81.851 102.88-30.353 60.501-30.353 132.273h-50.255Zm661.537 0q0-71.666-30.353-132.4-30.352-60.733-81.851-103.138l31.717-38.46q60.05 48.974 95.396 119.677 35.346 70.702 35.346 154.321h-50.255Zm-605.64 361.82v-50.255h72.308v-310.104q0-81.057 49.474-144.156 49.474-63.099 128.218-79.048v-21.82q0-20.769 14.615-35.384 14.615-14.616 35.384-14.616t35.384 14.616q14.615 14.615 14.615 35.384v21.82q78.744 15.949 128.218 79.048 49.474 63.099 49.474 144.156v310.104h72.308v50.255H180.001ZM480-498.769Zm0 406.46q-29.923 0-51.115-21.192-21.192-21.192-21.192-51.115h144.614q0 29.923-21.192 51.115Q509.923-92.309 480-92.309ZM302.564-254.87h354.873v-310.104q0-73.666-51.885-125.551Q553.667-742.411 480-742.411t-125.552 51.885q-51.884 51.885-51.884 125.551v310.104Z"/></svg>