<svg xmlns="http://www.w3.org/2000/svg" height="40" viewBox="0 -960 960 960" width="40"><path d="M479.301-260.283q14.571 0 24.814-10.134t10.243-24.705q0-14.571-10.262-24.814t-24.833-10.243q-14.57 0-24.686 10.262-10.115 10.262-10.115 24.833 0 14.57 10.134 24.686 10.134 10.115 24.705 10.115Zm-26.839-140.256h48.05q.513-29.077 9.782-46.653 9.269-17.577 33.52-41.827 31.288-31.032 44.147-54.455 12.858-23.423 12.858-50.807 0-49.923-32.999-79.757-33-29.833-85.143-29.833-47.269 0-80.973 23.603-33.703 23.602-49.139 61.217l45.024 18.717q11.924-25.871 32.442-41.038 20.517-15.167 51.251-15.167 34.693 0 53.09 18.321 18.397 18.321 18.397 45.437 0 19.961-10.871 37.602-10.872 17.641-34.051 39.154-34.257 32.359-44.821 56.769-10.564 24.41-10.564 58.717ZM140.001-140.001v-679.998h679.998v679.998H140.001Z"/></svg>